<?xml version="1.0" encoding="UTF-8" standalone="no"?>
<svg xmlns="http://www.w3.org/2000/svg" version="1.2" baseProfile="tiny" viewBox="0.00 0.00 1345.00 1559.00">
<path fill="currentColor" d="
  M 673.87 1559.00
  L 671.25 1559.00
  C 668.21 1558.37 665.29 1558.16 662.50 1558.39
  C 661.28 1558.49 660.15 1558.43 659.12 1558.22
  C 657.77 1557.94 656.53 1557.80 655.38 1557.80
  C 650.31 1557.81 645.05 1557.77 639.60 1557.68
  C 638.63 1557.67 637.52 1557.57 636.27 1557.38
  C 633.73 1557.01 631.11 1557.27 628.57 1556.91
  C 626.70 1556.64 624.82 1556.55 622.93 1556.64
  C 622.46 1556.67 622.01 1556.61 621.57 1556.46
  C 621.16 1556.33 620.75 1556.24 620.32 1556.21
  C 604.26 1554.87 588.09 1552.75 571.80 1549.86
  C 528.36 1542.14 487.53 1529.69 449.30 1512.51
  C 411.83 1495.68 377.40 1474.32 346.00 1448.44
  C 340.74 1444.11 335.43 1439.55 330.07 1434.74
  C 328.08 1432.96 326.24 1430.94 324.19 1429.26
  C 322.66 1428.00 321.18 1426.66 319.76 1425.24
  C 313.36 1418.82 306.69 1412.70 300.98 1406.00
  C 299.27 1404.00 296.79 1402.17 295.33 1399.96
  C 294.14 1398.15 292.36 1396.69 290.92 1394.99
  C 289.05 1392.79 287.31 1390.73 285.68 1388.81
  C 260.45 1358.91 239.77 1326.51 223.65 1291.61
  C 206.66 1254.81 195.37 1216.60 189.79 1176.99
  C 189.51 1174.98 189.26 1172.98 189.03 1171.01
  C 188.88 1169.75 188.71 1168.52 188.51 1167.31
  C 188.32 1166.12 188.23 1164.88 188.24 1163.58
  C 188.25 1163.23 188.17 1162.89 188.03 1162.57
  C 187.38 1161.12 187.89 1158.94 187.55 1157.26
  C 187.03 1154.69 187.33 1152.37 186.89 1149.89
  C 186.32 1146.79 186.63 1143.68 186.49 1140.70
  C 186.44 1139.83 185.99 1139.35 185.99 1138.47
  C 186.00 1128.19 186.00 1117.93 186.00 1107.70
  C 186.00 1107.57 186.02 1107.44 186.06 1107.31
  C 186.10 1107.19 186.16 1107.08 186.23 1106.98
  C 186.43 1106.69 186.53 1106.38 186.54 1106.03
  L 186.57 1098.25
  C 186.57 1097.88 186.67 1097.51 186.85 1097.19
  C 187.14 1096.70 187.26 1096.22 187.22 1095.75
  C 187.00 1093.16 187.11 1090.77 187.55 1088.57
  C 187.73 1087.68 187.79 1086.78 187.73 1085.88
  C 187.67 1084.93 187.73 1084.00 187.90 1083.10
  C 188.37 1080.69 188.15 1078.41 188.56 1075.98
  C 188.74 1074.93 188.88 1073.84 188.99 1072.73
  C 189.76 1064.66 190.71 1056.47 191.83 1048.14
  C 193.36 1036.74 195.12 1025.34 197.11 1013.95
  C 197.66 1010.82 196.03 1009.23 193.24 1007.97
  C 178.90 1001.48 166.63 995.52 156.43 990.07
  C 145.97 984.49 136.48 978.82 127.97 973.05
  C 120.43 967.93 113.12 962.41 106.04 956.50
  C 105.41 955.97 104.77 955.46 104.12 954.98
  C 102.58 953.85 101.59 952.43 100.03 951.41
  C 98.18 950.20 96.98 948.40 95.17 947.08
  C 94.20 946.37 93.31 945.61 92.50 944.79
  C 88.01 940.24 83.50 935.74 78.98 931.27
  C 77.58 929.88 76.74 928.28 75.31 926.93
  C 74.28 925.95 73.30 924.91 72.35 923.82
  C 43.98 890.79 24.16 852.77 12.88 809.76
  C 11.65 805.09 10.69 800.41 10.00 795.74
  C 9.38 791.60 8.81 787.54 8.30 783.55
  C 8.18 782.62 8.37 781.76 8.01 780.86
  C 7.45 779.45 7.63 777.94 7.41 776.40
  C 7.19 774.89 6.86 772.59 6.41 769.51
  C 5.89 765.95 5.28 762.50 4.58 759.16
  C 3.80 755.42 3.26 751.96 2.95 748.77
  C 2.06 739.49 1.38 730.19 0.91 720.87
  C 0.71 717.03 0.41 707.78 0.00 693.13
  L 0.00 674.76
  C 0.77 633.96 4.05 592.62 9.86 550.75
  C 10.45 546.50 11.09 542.65 11.78 539.19
  C 11.85 538.84 12.04 538.77 12.33 538.99
  C 35.50 556.28 58.51 571.42 81.36 584.40
  C 88.43 588.42 96.02 592.18 104.12 595.68
  C 109.57 598.03 115.01 599.70 120.44 600.69
  C 126.87 601.87 133.65 601.07 135.30 593.54
  C 143.24 557.38 153.46 522.62 165.97 489.27
  C 181.06 449.05 200.61 410.11 225.90 375.86
  C 237.92 359.58 251.45 344.10 266.93 331.08
  C 274.86 324.41 282.79 318.12 290.74 312.22
  C 297.96 306.86 305.83 301.97 314.35 297.55
  C 318.23 295.54 322.25 294.03 326.16 292.23
  C 327.02 291.84 327.26 290.74 326.66 290.02
  C 326.11 289.37 325.46 289.26 324.69 289.70
  C 324.38 289.87 324.04 289.96 323.69 289.97
  C 321.92 290.01 320.05 290.02 318.07 290.01
  C 316.67 290.01 314.80 290.15 312.47 290.44
  C 309.28 290.83 306.08 290.81 302.88 290.37
  C 301.23 290.14 299.75 290.02 298.42 290.01
  C 297.13 289.99 295.88 289.99 294.67 290.00
  C 293.58 290.02 292.47 289.93 291.33 289.73
  C 290.40 289.57 289.39 289.45 288.30 289.36
  C 282.58 288.91 276.15 287.87 269.01 286.24
  C 248.40 281.55 230.07 272.08 214.00 257.83
  C 211.81 255.89 209.76 253.89 207.84 251.84
  C 205.97 249.84 204.11 247.71 202.24 245.46
  C 190.51 231.29 184.49 214.91 184.18 196.31
  C 184.15 194.47 184.94 192.92 184.82 191.13
  C 184.77 190.37 184.81 189.60 184.96 188.81
  C 187.43 175.54 193.61 165.16 203.49 157.66
  C 206.86 155.10 211.05 153.11 216.05 151.69
  C 217.13 151.39 218.47 151.76 219.31 151.20
  C 219.59 151.01 219.90 150.92 220.25 150.91
  C 222.60 150.85 226.26 150.42 228.40 151.29
  C 229.42 151.71 230.60 151.40 231.78 151.67
  C 237.73 153.03 242.51 154.46 246.14 155.95
  C 251.07 157.99 255.81 159.72 260.36 161.14
  C 262.11 161.69 263.96 162.10 265.92 162.38
  C 267.07 162.54 268.59 162.45 269.54 162.88
  C 271.49 163.76 274.52 162.95 276.79 163.48
  C 278.38 163.85 280.05 163.91 281.81 163.65
  C 283.46 163.41 285.14 163.26 286.87 163.21
  C 288.94 163.15 290.96 162.98 292.92 162.69
  C 299.27 161.76 304.48 160.76 308.57 159.68
  C 323.43 155.78 339.26 150.85 356.05 144.90
  C 370.85 139.65 385.58 135.49 400.23 132.42
  C 400.86 132.29 401.50 132.21 402.15 132.20
  C 402.44 132.19 402.69 132.10 402.92 131.91
  C 403.29 131.61 403.71 131.49 404.16 131.56
  C 404.48 131.61 404.80 131.59 405.12 131.51
  C 406.53 131.18 407.97 130.85 409.43 130.54
  C 410.42 130.33 411.46 130.73 412.28 130.16
  C 412.56 129.97 412.87 129.85 413.20 129.81
  C 416.59 129.41 420.05 128.88 423.57 128.23
  C 424.21 128.11 424.85 128.07 425.49 128.10
  C 426.95 128.18 427.85 127.47 429.28 127.48
  C 430.18 127.50 431.02 127.62 431.88 127.31
  C 433.69 126.65 435.36 127.23 437.20 126.71
  C 438.65 126.29 440.23 126.16 441.96 126.33
  C 442.44 126.38 442.91 126.25 443.33 126.00
  C 443.61 125.83 443.92 125.75 444.25 125.75
  C 446.60 125.74 448.91 125.74 451.16 125.75
  C 451.63 125.75 451.78 125.64 452.16 125.41
  C 452.38 125.28 452.62 125.21 452.87 125.21
  C 464.33 125.20 475.79 125.20 487.24 125.21
  C 488.07 125.21 489.56 125.35 491.72 125.64
  C 493.85 125.92 496.91 125.26 498.80 126.11
  C 499.13 126.26 499.47 126.32 499.82 126.29
  C 501.16 126.20 502.45 126.26 503.70 126.48
  C 504.98 126.71 506.30 126.89 507.65 127.02
  C 515.03 127.72 522.29 128.82 529.42 130.33
  C 529.85 130.42 530.27 130.45 530.69 130.41
  C 531.51 130.33 531.99 130.76 532.76 130.91
  C 552.53 134.81 571.94 140.91 590.99 149.20
  C 595.18 151.02 599.42 152.99 603.73 155.12
  C 604.62 155.55 605.54 155.72 606.51 155.62
  C 607.45 155.52 608.01 154.84 608.19 153.59
  C 608.24 153.21 608.15 152.88 607.90 152.59
  C 607.19 151.76 606.42 151.06 605.57 150.49
  C 602.84 148.63 600.37 145.67 598.02 143.32
  C 597.07 142.37 596.20 141.36 595.41 140.28
  C 594.38 138.88 592.97 137.70 591.80 136.33
  C 583.49 126.68 576.75 116.46 571.58 105.67
  C 567.15 96.42 564.21 86.48 562.76 75.87
  C 562.61 74.75 562.55 73.62 562.59 72.49
  C 562.65 70.77 561.92 69.57 561.98 67.93
  C 562.04 65.76 561.72 63.29 562.32 61.17
  C 562.88 59.24 562.26 57.36 562.91 55.43
  C 563.34 54.13 563.11 52.91 563.43 51.56
  C 564.61 46.53 565.49 43.19 566.07 41.54
  C 566.66 39.89 567.70 37.58 569.20 34.61
  C 570.49 32.05 571.85 29.74 573.28 27.67
  C 580.97 16.58 591.70 9.34 605.47 5.95
  C 610.10 4.81 615.18 5.36 619.94 5.24
  C 620.32 5.23 620.66 5.34 620.97 5.56
  C 621.47 5.91 622.03 6.02 622.64 5.89
  C 623.03 5.80 623.39 5.87 623.72 6.08
  C 624.55 6.61 625.40 6.46 626.35 6.74
  C 633.11 8.74 639.58 12.17 645.77 17.02
  C 646.53 17.62 647.29 18.19 648.04 18.74
  C 648.83 19.31 649.54 19.94 650.19 20.62
  C 655.94 26.69 661.61 32.19 667.21 37.12
  C 669.50 39.13 672.02 41.10 674.77 43.03
  C 680.90 47.32 687.55 50.16 694.74 51.56
  C 715.07 55.51 735.04 60.54 754.66 66.64
  C 756.68 67.27 758.68 67.97 760.65 68.74
  C 762.37 69.41 764.14 70.09 765.95 70.80
  C 796.52 82.60 824.62 98.98 850.27 119.94
  C 852.42 121.69 854.64 123.56 856.93 125.53
  C 858.79 127.14 860.60 128.82 862.37 130.57
  C 864.04 132.22 865.87 133.91 867.85 135.62
  C 870.26 137.70 872.49 139.95 874.53 142.37
  C 875.74 143.80 876.97 145.15 878.20 146.41
  C 879.45 147.68 880.69 149.03 881.93 150.44
  C 899.95 170.88 914.25 193.11 924.82 217.12
  C 932.38 234.29 937.83 251.84 941.16 269.77
  C 941.46 271.40 941.78 273.06 942.11 274.76
  C 942.42 276.43 942.72 278.09 942.99 279.75
  C 943.33 281.80 943.69 283.92 944.08 286.09
  C 945.40 293.48 947.53 300.57 950.47 307.38
  C 950.91 308.39 951.97 310.19 953.66 312.79
  C 954.69 314.38 955.78 315.75 956.92 316.91
  C 959.32 319.34 961.60 321.90 964.45 323.76
  C 965.78 324.63 967.11 325.47 968.43 326.28
  C 970.66 327.66 971.29 327.13 970.34 324.69
  C 969.52 322.60 968.90 320.38 968.47 318.03
  C 968.37 317.51 968.20 317.03 967.97 316.58
  C 967.78 316.22 967.73 315.85 967.84 315.47
  C 967.97 315.00 967.91 314.57 967.64 314.17
  C 967.25 313.59 967.13 312.96 967.26 312.28
  C 967.33 311.91 967.26 311.57 967.05 311.26
  C 966.19 309.98 967.07 308.67 966.45 307.20
  C 966.22 306.65 966.10 306.08 966.09 305.47
  C 966.04 302.35 966.05 299.15 966.10 295.86
  C 966.13 294.04 966.32 292.15 966.67 290.18
  C 967.02 288.15 967.45 286.27 967.94 284.54
  C 969.95 277.46 972.93 271.62 976.86 267.01
  C 977.77 265.95 978.62 264.88 979.42 263.80
  C 981.02 261.64 983.12 260.43 985.05 258.62
  C 985.98 257.75 987.01 256.92 988.15 256.14
  C 993.08 252.75 998.58 250.47 1004.63 249.31
  C 1005.40 249.16 1006.18 249.11 1006.97 249.15
  C 1007.68 249.19 1008.35 249.06 1008.98 248.77
  C 1010.10 248.25 1011.83 248.58 1013.10 248.50
  C 1013.85 248.46 1014.58 248.57 1015.29 248.84
  C 1016.82 249.43 1018.98 249.05 1020.77 249.42
  C 1027.74 250.87 1034.20 253.00 1040.13 255.80
  C 1047.27 259.17 1054.69 264.16 1062.38 270.77
  C 1066.11 273.97 1069.33 277.10 1072.04 280.17
  C 1073.44 281.75 1074.86 283.35 1076.30 284.97
  C 1090.75 301.18 1103.45 319.03 1114.40 338.51
  C 1115.19 339.90 1115.82 341.28 1116.30 342.67
  C 1116.95 344.51 1117.48 346.52 1118.44 348.21
  C 1124.73 359.33 1129.45 369.29 1132.60 378.09
  C 1133.53 380.68 1134.53 383.05 1135.62 385.22
  C 1138.74 391.44 1141.07 398.05 1143.27 404.66
  C 1150.70 426.97 1156.50 450.08 1160.67 474.01
  C 1166.78 509.08 1169.83 544.34 1169.80 579.79
  C 1169.79 587.51 1169.71 595.54 1169.56 603.87
  C 1169.47 608.44 1170.42 613.13 1172.39 617.95
  C 1180.36 637.46 1209.62 626.74 1223.08 620.46
  C 1244.58 610.43 1264.31 598.01 1283.46 584.81
  C 1296.89 575.55 1309.69 566.74 1321.84 558.39
  C 1324.72 556.41 1328.00 554.33 1331.68 552.16
  C 1333.13 551.30 1334.71 550.66 1336.42 550.23
  C 1336.86 550.12 1337.29 550.41 1337.37 550.85
  C 1346.15 600.67 1346.60 651.33 1341.04 701.96
  C 1335.61 751.28 1325.00 800.14 1309.21 848.53
  C 1307.07 855.10 1304.64 861.21 1301.91 866.86
  C 1291.43 888.56 1278.28 908.43 1262.45 926.46
  C 1260.77 928.39 1258.75 930.05 1257.25 932.10
  C 1256.64 932.92 1255.98 933.69 1255.26 934.41
  C 1252.55 937.10 1249.85 939.79 1247.16 942.48
  C 1246.54 943.10 1245.81 943.28 1245.22 943.88
  C 1242.87 946.29 1240.40 948.60 1237.82 950.81
  C 1224.19 962.52 1209.42 973.00 1193.50 982.25
  C 1175.77 992.56 1157.62 1000.91 1139.04 1007.32
  C 1138.34 1007.56 1137.85 1008.03 1137.57 1008.73
  C 1137.22 1009.63 1137.14 1010.56 1137.35 1011.51
  C 1142.09 1032.91 1145.48 1054.30 1147.53 1075.67
  C 1147.67 1077.09 1147.77 1078.48 1147.82 1079.84
  C 1147.88 1081.25 1147.99 1082.64 1148.14 1084.01
  C 1148.32 1085.63 1148.43 1087.46 1148.46 1089.50
  C 1148.50 1091.97 1148.94 1094.49 1148.97 1096.84
  C 1149.13 1110.69 1149.34 1124.26 1148.79 1137.25
  C 1148.40 1146.44 1147.66 1155.60 1146.57 1164.75
  C 1141.15 1210.08 1129.01 1252.93 1110.15 1293.30
  C 1092.97 1330.05 1070.91 1363.91 1043.96 1394.86
  C 1038.72 1400.89 1033.97 1406.04 1029.72 1410.31
  C 1029.18 1410.86 1028.96 1411.54 1028.41 1412.09
  C 1024.32 1416.24 1020.22 1420.33 1016.13 1424.38
  C 1015.50 1425.00 1014.68 1425.21 1014.07 1425.84
  C 1011.02 1429.03 1007.42 1432.47 1003.29 1436.14
  C 976.46 1460.02 947.78 1480.53 917.24 1497.66
  C 913.31 1499.87 909.32 1501.98 905.29 1504.01
  C 903.41 1504.96 901.55 1505.97 899.71 1507.04
  C 897.18 1508.51 894.41 1509.38 891.81 1510.72
  C 889.24 1512.05 886.63 1513.31 884.00 1514.51
  C 851.10 1529.48 816.62 1540.61 780.55 1547.90
  C 757.79 1552.50 733.80 1555.64 708.57 1557.33
  C 703.64 1557.66 698.78 1557.81 694.01 1557.77
  C 693.68 1557.77 693.39 1557.87 693.13 1558.06
  C 692.87 1558.25 692.58 1558.34 692.25 1558.33
  C 686.04 1558.11 679.91 1558.33 673.87 1559.00
  Z
  M 371.49 1088.46
  C 368.27 1090.29 365.01 1092.44 361.70 1094.92
  C 357.91 1097.77 354.07 1101.34 350.18 1105.65
  C 342.76 1113.85 337.57 1123.56 334.62 1134.79
  C 332.58 1142.52 331.41 1149.31 331.12 1155.15
  C 330.93 1158.98 330.89 1163.44 331.01 1168.53
  C 331.04 1169.83 331.53 1170.71 331.52 1172.02
  C 331.51 1172.96 331.60 1173.92 331.79 1174.90
  C 332.58 1178.93 333.23 1182.90 334.21 1186.78
  C 336.66 1196.49 340.45 1207.22 345.56 1218.95
  C 357.21 1245.66 372.29 1269.85 390.80 1291.51
  C 391.77 1292.65 392.92 1293.62 393.74 1294.81
  C 394.33 1295.67 395.01 1296.47 395.77 1297.22
  C 398.00 1299.41 400.08 1301.66 402.03 1303.99
  C 403.44 1305.68 405.35 1307.60 407.74 1309.75
  C 409.73 1311.54 411.71 1313.36 413.70 1315.21
  C 418.78 1319.93 424.69 1324.96 431.44 1330.31
  C 454.81 1348.84 479.83 1364.07 506.50 1376.00
  C 536.88 1389.59 570.85 1399.40 608.42 1405.43
  C 608.72 1405.48 609.54 1405.57 610.88 1405.70
  C 611.79 1405.79 612.63 1405.93 613.39 1406.14
  C 615.02 1406.59 616.61 1406.02 618.10 1406.75
  C 618.42 1406.91 618.76 1406.98 619.11 1406.95
  C 620.29 1406.86 621.41 1406.96 622.48 1407.24
  C 624.53 1407.79 626.44 1407.24 628.37 1407.80
  C 630.80 1408.50 633.44 1407.95 635.94 1408.49
  C 638.33 1409.01 641.75 1408.15 643.81 1409.06
  C 644.14 1409.21 644.49 1409.28 644.85 1409.28
  C 649.78 1409.30 654.73 1409.31 659.72 1409.31
  C 660.55 1409.31 661.12 1409.93 661.95 1409.95
  C 665.04 1410.00 667.91 1409.98 670.56 1409.88
  C 671.67 1409.84 672.26 1409.27 673.30 1409.28
  C 678.02 1409.31 682.90 1409.31 687.95 1409.30
  C 688.28 1409.30 688.58 1409.22 688.87 1409.06
  C 689.43 1408.74 690.06 1408.61 690.75 1408.68
  C 693.36 1408.95 695.74 1408.85 697.90 1408.38
  C 699.82 1407.96 701.60 1408.43 703.47 1408.05
  C 704.84 1407.77 706.21 1407.59 707.58 1407.50
  C 710.51 1407.33 713.48 1407.02 716.51 1406.57
  C 720.16 1406.03 723.80 1405.55 727.43 1405.12
  C 728.29 1405.01 728.53 1404.53 729.52 1404.59
  C 729.98 1404.62 730.44 1404.59 730.91 1404.52
  C 758.78 1400.26 785.53 1393.23 811.16 1383.42
  C 837.90 1373.19 863.25 1359.70 887.22 1342.94
  C 897.26 1335.92 906.72 1328.54 915.60 1320.79
  C 917.19 1319.40 918.55 1317.69 920.22 1316.44
  C 921.45 1315.51 922.61 1314.50 923.68 1313.43
  C 927.03 1310.07 930.39 1306.72 933.76 1303.37
  C 935.56 1301.59 936.86 1299.57 938.65 1297.82
  C 939.92 1296.58 941.18 1295.23 942.42 1293.77
  C 944.39 1291.45 946.19 1289.31 947.82 1287.35
  C 963.17 1269.00 976.03 1248.62 986.42 1226.23
  C 987.56 1223.78 988.69 1221.20 989.81 1218.50
  C 994.86 1206.25 998.79 1193.79 1001.60 1181.13
  C 1001.69 1180.71 1001.74 1180.29 1001.73 1179.88
  C 1001.72 1179.41 1001.88 1179.01 1002.20 1178.67
  C 1002.42 1178.44 1002.49 1178.10 1002.39 1177.79
  C 1002.22 1177.25 1002.26 1176.71 1002.53 1176.17
  C 1002.80 1175.62 1002.97 1175.00 1003.03 1174.31
  C 1003.24 1171.86 1003.53 1169.59 1003.89 1167.48
  C 1004.06 1166.47 1004.12 1165.50 1004.07 1164.56
  C 1004.00 1163.45 1004.07 1162.38 1004.29 1161.35
  C 1004.59 1159.98 1004.73 1158.53 1004.72 1157.00
  C 1004.70 1154.59 1004.98 1151.95 1004.40 1149.60
  C 1004.17 1148.67 1004.07 1147.73 1004.10 1146.76
  C 1004.14 1145.49 1004.03 1144.03 1003.78 1142.38
  C 1003.44 1140.12 1003.05 1137.85 1002.60 1135.57
  C 1001.05 1127.63 998.10 1120.12 993.73 1113.04
  C 992.53 1111.11 991.24 1109.36 989.86 1107.81
  C 988.47 1106.24 987.18 1104.69 985.99 1103.14
  C 985.73 1102.80 985.39 1102.55 984.98 1102.40
  C 983.67 1101.92 981.93 1099.69 980.64 1098.76
  C 977.01 1096.15 973.38 1093.93 969.77 1092.12
  C 968.70 1091.58 968.70 1090.06 969.77 1089.53
  C 972.98 1087.93 976.22 1086.55 979.50 1085.40
  C 982.76 1084.25 985.90 1082.94 988.93 1081.45
  C 997.58 1077.19 1005.11 1072.18 1011.50 1066.42
  C 1016.66 1061.77 1021.35 1056.69 1025.57 1051.19
  C 1039.32 1033.28 1048.30 1012.91 1052.50 990.10
  C 1052.71 988.99 1052.35 987.89 1053.02 986.92
  C 1053.21 986.64 1053.29 986.33 1053.24 985.99
  C 1053.12 985.10 1053.18 984.24 1053.43 983.41
  C 1054.12 981.10 1053.76 978.06 1053.79 975.71
  C 1053.80 975.45 1053.87 975.21 1054.01 974.99
  C 1054.30 974.54 1054.39 974.34 1054.39 973.79
  C 1054.38 971.55 1054.37 969.45 1054.35 967.48
  C 1054.35 967.15 1054.26 966.83 1054.09 966.53
  C 1053.92 966.24 1053.84 965.94 1053.84 965.61
  C 1053.86 960.72 1053.37 955.80 1052.36 950.86
  C 1049.45 936.61 1043.85 923.19 1035.56 910.61
  C 1034.70 909.31 1033.57 908.19 1032.16 907.26
  C 1024.68 902.31 1017.39 897.05 1010.30 891.50
  C 1007.63 889.41 1005.20 886.82 1002.85 884.31
  C 997.99 879.11 994.65 873.41 992.84 867.20
  C 992.48 865.97 992.52 864.68 992.01 863.60
  C 991.83 863.20 991.75 862.76 991.80 862.33
  C 991.95 860.72 991.79 859.13 991.30 857.55
  C 991.19 857.20 991.19 856.84 991.30 856.48
  C 991.63 855.33 991.81 854.12 991.83 852.83
  C 991.86 851.33 992.02 849.89 992.31 848.50
  C 994.24 839.33 998.60 830.48 1005.40 821.96
  C 1009.75 816.51 1012.75 810.52 1014.40 803.99
  C 1014.57 803.29 1014.65 802.62 1014.62 801.97
  C 1014.59 801.44 1014.71 800.95 1014.96 800.50
  C 1015.14 800.17 1015.23 799.83 1015.23 799.46
  L 1015.24 785.78
  C 1015.24 785.41 1015.14 785.08 1014.94 784.77
  C 1014.39 783.94 1014.66 782.63 1014.43 781.58
  C 1011.14 767.06 1004.62 754.23 994.85 743.08
  C 994.30 742.45 993.71 741.94 993.07 741.53
  C 991.40 740.47 990.20 738.96 988.52 737.87
  C 982.78 734.16 976.35 730.65 970.59 726.57
  C 968.62 725.18 967.29 723.29 965.16 722.24
  C 964.99 722.15 964.85 722.02 964.74 721.85
  C 964.65 721.70 964.58 721.55 964.53 721.38
  C 964.44 721.06 964.27 720.78 964.04 720.54
  C 961.63 718.03 959.91 715.20 958.88 712.03
  C 958.21 709.97 957.87 706.75 957.86 702.37
  C 957.85 696.29 957.85 690.21 957.88 684.12
  C 957.89 682.92 958.50 682.12 958.50 680.95
  C 958.49 675.02 958.49 669.00 958.51 662.88
  C 958.51 662.62 958.58 662.37 958.71 662.15
  C 958.77 662.05 958.82 661.95 958.87 661.85
  C 958.98 661.62 959.04 661.38 959.04 661.12
  C 959.05 646.92 959.05 632.97 959.04 619.27
  C 959.04 618.11 958.55 617.28 958.54 616.16
  C 958.48 609.64 958.47 603.22 958.51 596.89
  C 958.53 593.96 958.41 591.04 958.16 588.12
  C 957.05 575.31 952.68 563.99 945.04 554.16
  C 941.25 549.28 936.91 544.93 932.03 541.11
  C 923.68 534.58 913.92 529.47 902.74 525.80
  C 896.69 523.81 889.73 522.08 881.88 520.61
  C 881.28 520.50 880.69 520.45 880.12 520.45
  C 879.61 520.46 879.14 520.31 878.71 520.02
  C 878.42 519.82 878.11 519.74 877.76 519.78
  C 876.53 519.93 875.33 519.83 874.16 519.49
  C 872.60 519.04 871.16 519.50 869.67 519.11
  C 868.71 518.86 867.71 518.73 866.67 518.72
  C 859.22 518.68 851.41 518.69 843.25 518.74
  C 842.74 518.75 842.26 518.85 841.79 519.05
  C 840.76 519.51 839.29 519.15 838.15 519.29
  C 830.12 520.28 822.70 521.63 815.88 523.33
  C 801.43 526.94 787.39 532.31 773.76 539.43
  C 770.97 540.88 769.60 543.05 769.65 545.94
  C 769.68 547.62 770.49 549.62 772.08 551.93
  C 779.21 562.23 784.93 573.77 789.24 586.54
  C 790.50 590.27 791.59 594.17 792.52 598.24
  C 793.50 602.52 794.20 606.55 794.62 610.32
  C 794.73 611.27 794.85 612.22 795.00 613.15
  C 795.15 614.12 795.24 615.09 795.25 616.07
  C 795.31 620.56 795.29 624.97 795.19 629.31
  C 795.06 635.20 794.15 641.59 792.46 648.46
  C 787.20 669.98 777.61 688.96 763.70 705.41
  C 762.49 706.84 760.98 708.02 759.90 709.53
  C 759.09 710.66 758.15 711.72 757.09 712.71
  C 753.56 716.01 749.94 719.14 746.24 722.11
  C 731.64 733.82 714.60 742.33 695.13 747.63
  C 688.84 749.34 683.21 750.37 678.23 750.72
  C 677.30 750.79 676.37 750.90 675.45 751.06
  C 674.44 751.24 673.46 751.34 672.52 751.36
  C 669.69 751.43 666.82 751.44 663.92 751.39
  C 662.61 751.37 661.79 750.62 660.42 750.76
  C 659.63 750.84 658.84 750.82 658.05 750.70
  C 643.59 748.46 631.33 743.57 621.26 736.02
  C 612.22 729.25 606.34 719.80 603.63 707.67
  C 603.39 706.61 603.72 705.42 603.35 704.48
  C 603.10 703.83 602.96 703.13 602.95 702.40
  C 602.72 692.12 605.52 682.70 611.36 674.15
  C 612.61 672.32 614.24 671.09 615.40 669.25
  C 616.24 667.92 617.65 667.56 618.77 666.34
  C 619.60 665.43 620.54 664.62 621.59 663.89
  C 626.46 660.52 631.45 658.05 636.56 656.49
  C 642.83 654.58 649.25 653.11 655.83 652.08
  C 656.97 651.90 658.04 651.44 659.03 650.69
  C 660.37 649.68 661.40 648.41 662.12 646.86
  C 664.09 642.61 665.39 638.01 666.00 633.06
  C 666.19 631.46 665.83 630.06 666.63 628.55
  C 666.81 628.21 666.85 627.85 666.74 627.48
  L 665.90 624.61
  C 665.57 623.48 664.71 622.58 663.59 622.20
  C 637.41 613.35 612.55 602.70 589.01 590.25
  C 585.90 588.60 582.85 586.98 579.87 585.38
  C 576.80 583.73 573.79 582.04 570.86 580.30
  C 542.45 563.48 513.95 546.35 485.34 528.90
  C 483.30 527.65 480.03 526.48 475.53 525.39
  C 474.70 525.19 473.41 525.08 471.66 525.06
  C 470.44 525.05 469.14 524.92 467.75 524.69
  C 465.74 524.36 462.82 524.30 459.00 524.53
  C 458.97 524.53 457.64 524.69 455.02 525.00
  C 453.53 525.18 452.02 525.20 450.48 525.07
  C 450.14 525.04 449.79 525.11 449.48 525.26
  C 448.15 525.89 446.91 525.64 445.49 525.87
  C 425.94 529.03 409.10 537.54 394.96 551.39
  C 394.17 552.16 393.45 552.98 392.82 553.84
  C 392.18 554.71 391.53 555.56 390.88 556.39
  C 382.47 567.10 377.54 579.46 376.10 593.49
  C 375.95 594.93 376.17 596.42 375.79 597.79
  C 375.54 598.72 375.41 599.68 375.41 600.65
  C 375.41 637.58 375.41 674.39 375.41 711.08
  C 375.41 712.58 375.20 714.08 374.77 715.58
  C 374.40 716.88 373.95 718.14 373.42 719.35
  C 372.05 722.46 369.38 724.75 366.30 726.16
  C 355.60 731.07 345.81 737.84 336.92 746.49
  C 334.77 748.58 332.73 750.89 330.78 753.41
  C 326.71 758.68 323.57 764.21 321.37 770.01
  C 318.90 776.52 317.81 782.94 318.08 789.26
  C 318.35 795.51 319.64 801.50 321.93 807.25
  C 323.42 810.99 325.18 814.70 327.21 818.37
  C 329.88 823.23 332.44 827.97 334.87 832.59
  C 334.94 832.72 334.99 832.87 335.02 833.03
  C 335.05 833.19 335.11 833.35 335.19 833.50
  C 337.82 838.59 339.69 843.89 340.82 849.42
  C 341.32 851.91 341.59 854.56 341.62 857.38
  C 341.65 860.55 341.51 863.16 341.18 865.22
  C 340.30 870.63 338.09 876.13 334.55 881.71
  C 332.35 885.19 329.21 887.99 326.25 890.87
  C 324.15 892.91 321.88 895.04 319.44 897.25
  C 307.23 908.31 298.02 921.33 291.81 936.31
  C 287.21 947.38 284.33 958.31 283.18 969.08
  C 282.91 971.61 283.01 974.13 283.02 976.61
  C 283.03 977.92 282.18 978.91 282.80 980.11
  C 282.99 980.47 283.08 980.88 283.06 981.29
  C 282.83 985.09 283.01 988.91 283.60 992.74
  C 284.79 1000.59 286.65 1007.82 289.18 1014.43
  C 295.15 1030.04 303.78 1043.66 315.07 1055.29
  C 319.98 1060.34 325.30 1064.86 331.04 1068.86
  C 343.21 1077.33 356.66 1083.60 371.39 1087.67
  C 372.05 1087.86 372.08 1088.12 371.49 1088.46
  Z
  M 1238.77 729.24
  C 1237.18 729.58 1235.59 729.95 1233.99 730.34
  C 1219.98 733.77 1207.67 737.17 1197.04 740.54
  C 1175.85 747.28 1157.11 756.38 1140.83 767.83
  C 1139.13 769.03 1135.63 771.69 1130.34 775.82
  C 1129.19 776.71 1128.38 777.90 1127.17 778.69
  C 1124.21 780.62 1122.30 783.69 1119.33 785.69
  C 1118.44 786.30 1117.68 787.03 1117.05 787.88
  C 1116.16 789.11 1115.13 790.30 1113.96 791.45
  C 1102.31 802.96 1096.68 817.10 1097.05 833.85
  C 1097.09 835.38 1097.25 837.03 1097.54 838.79
  C 1097.88 840.88 1098.24 842.63 1098.61 844.04
  C 1100.31 850.51 1103.69 856.88 1108.88 861.07
  C 1113.40 864.72 1119.12 866.88 1126.04 867.55
  C 1128.46 867.78 1133.38 868.36 1135.31 867.49
  C 1136.69 866.88 1138.27 867.78 1139.39 866.79
  C 1139.61 866.60 1139.91 866.53 1140.19 866.61
  C 1141.27 866.92 1142.35 866.26 1143.47 866.02
  C 1144.66 865.77 1145.80 865.46 1146.89 865.11
  C 1152.01 863.42 1156.73 861.33 1161.04 858.83
  C 1168.97 854.23 1175.97 849.05 1182.05 843.28
  C 1185.03 840.46 1188.34 838.14 1190.89 834.85
  C 1192.78 832.40 1195.07 830.46 1197.07 828.08
  C 1209.84 812.93 1221.16 796.59 1231.04 779.08
  C 1239.19 764.63 1245.99 750.59 1251.44 736.94
  C 1252.65 733.91 1253.38 730.80 1253.65 727.60
  C 1253.72 726.71 1252.89 726.01 1252.03 726.25
  C 1249.01 727.07 1246.03 727.73 1243.08 728.22
  C 1241.65 728.45 1240.21 728.93 1238.77 729.24
  Z
  M 238.75 836.54
  C 239.00 836.20 239.20 835.83 239.20 835.41
  C 239.24 832.64 239.25 829.87 239.23 827.10
  C 239.22 825.91 238.50 825.37 238.58 824.16
  C 238.63 823.57 238.55 822.95 238.34 822.28
  C 234.22 808.66 227.51 796.86 218.21 786.87
  C 214.36 782.74 210.40 779.09 206.32 775.92
  C 196.03 767.91 184.33 760.59 171.22 753.94
  C 170.66 753.65 170.16 753.35 169.72 753.02
  C 168.68 752.23 167.41 751.98 166.25 751.40
  C 150.88 743.83 134.80 737.78 118.02 733.27
  C 108.30 730.66 98.33 728.54 88.10 726.91
  C 86.96 726.73 85.80 726.69 84.63 726.79
  C 83.01 726.93 82.11 728.82 82.90 730.44
  C 83.08 730.81 83.14 731.18 83.07 731.56
  C 83.01 731.89 83.04 732.21 83.16 732.52
  C 84.95 737.06 86.97 741.49 89.21 745.82
  C 90.79 748.86 91.93 752.11 93.65 755.11
  C 94.90 757.30 96.09 759.49 97.21 761.70
  C 106.06 779.11 115.93 795.35 126.81 810.44
  C 136.64 824.08 147.73 836.56 160.08 847.87
  C 168.66 855.73 179.18 861.70 190.17 864.92
  C 191.50 865.31 192.83 865.59 194.16 865.76
  C 195.58 865.94 196.90 866.15 198.11 866.40
  C 200.67 866.92 203.11 866.62 205.67 866.73
  C 206.08 866.74 206.47 866.65 206.83 866.44
  C 207.40 866.11 208.00 865.97 208.63 866.02
  C 209.50 866.08 210.47 865.98 211.52 865.72
  C 220.39 863.53 227.49 858.81 232.84 851.57
  C 235.69 847.71 237.61 843.17 238.62 837.96
  C 238.68 837.65 238.59 837.39 238.58 837.08
  C 238.57 836.89 238.63 836.71 238.75 836.54
  Z"
/>
<path fill="currentColor" d="
  M 719.56 896.29
  C 723.71 893.34 727.91 891.34 732.18 890.28
  C 734.01 889.82 736.03 890.39 737.60 889.83
  C 738.27 889.60 738.92 889.48 739.57 889.48
  C 745.91 889.49 752.12 889.49 758.21 889.49
  C 758.55 889.49 758.88 889.37 759.14 889.14
  C 759.21 889.08 759.29 889.03 759.36 888.98
  C 759.44 888.93 759.53 888.90 759.62 888.90
  C 780.77 888.85 803.31 888.86 827.23 888.93
  C 831.24 888.94 834.68 888.50 837.55 887.61
  C 850.59 883.53 859.69 873.87 868.01 862.67
  C 871.74 857.64 876.23 852.37 881.47 846.88
  C 882.28 846.03 883.14 845.32 884.05 844.73
  C 885.21 843.99 885.93 842.86 886.99 842.00
  C 893.36 836.90 900.43 833.58 908.20 832.04
  C 910.12 831.65 912.00 831.48 913.83 831.52
  C 915.95 831.57 918.02 831.57 920.03 831.52
  C 920.37 831.51 920.67 831.62 920.93 831.85
  C 921.20 832.10 921.52 832.20 921.89 832.17
  C 922.18 832.15 922.47 832.16 922.75 832.20
  C 926.44 832.81 929.73 833.99 932.63 835.75
  C 935.46 837.48 937.95 839.87 940.10 842.92
  C 942.52 846.37 944.20 850.06 945.15 854.01
  C 945.65 856.11 946.12 858.29 946.55 860.55
  C 947.00 862.89 947.25 865.11 947.28 867.22
  C 947.37 872.85 946.76 878.84 945.46 885.17
  C 942.16 901.19 935.64 915.08 925.89 926.85
  C 914.88 940.14 901.19 950.73 884.83 958.60
  C 876.06 962.83 867.00 965.79 857.67 967.50
  C 855.40 967.91 853.11 968.30 850.80 968.65
  C 849.72 968.82 848.67 968.91 847.65 968.94
  C 846.11 968.98 844.94 969.54 843.42 969.52
  C 841.12 969.50 838.88 969.50 836.69 969.53
  C 835.95 969.54 835.40 970.10 834.75 970.10
  C 818.92 970.13 803.03 970.14 787.07 970.12
  C 786.49 970.12 786.02 970.57 785.99 971.15
  C 785.93 972.48 786.03 973.60 785.61 974.91
  C 785.04 976.69 785.43 978.39 784.99 980.32
  C 784.52 982.45 784.86 984.61 784.52 986.89
  C 784.17 989.24 784.04 991.61 784.14 994.00
  C 784.24 996.48 783.54 998.60 783.56 1001.02
  C 783.57 1002.32 783.46 1003.64 783.25 1004.99
  C 783.04 1006.32 782.84 1007.67 782.66 1009.03
  C 781.85 1015.08 780.38 1020.59 778.25 1025.55
  C 774.27 1034.82 768.58 1043.52 761.17 1051.65
  C 753.08 1060.52 743.41 1068.02 732.14 1074.13
  C 718.85 1081.34 703.93 1086.16 687.39 1088.57
  C 686.28 1088.74 685.22 1088.81 684.20 1088.78
  C 683.72 1088.77 683.27 1088.90 682.85 1089.15
  C 682.52 1089.35 682.17 1089.44 681.79 1089.42
  C 677.86 1089.20 674.36 1090.03 670.49 1090.05
  C 661.66 1090.09 652.89 1089.37 644.17 1087.90
  C 643.48 1087.79 642.79 1087.72 642.12 1087.70
  C 641.84 1087.69 641.57 1087.61 641.32 1087.48
  C 640.61 1087.11 639.88 1086.97 639.12 1087.06
  C 638.81 1087.09 638.51 1087.04 638.24 1086.89
  C 637.87 1086.69 637.46 1086.55 637.03 1086.46
  C 631.12 1085.23 625.21 1083.46 619.32 1081.16
  C 608.68 1077.01 598.65 1071.51 589.24 1064.66
  C 585.49 1061.94 582.03 1058.96 578.85 1055.71
  C 578.40 1055.26 577.89 1054.90 577.30 1054.63
  C 576.18 1054.13 576.10 1052.80 575.22 1052.02
  C 574.05 1050.98 572.98 1049.90 572.01 1048.78
  C 559.16 1033.95 551.50 1016.33 549.02 995.92
  C 548.64 992.79 548.47 989.99 548.52 987.51
  C 548.55 986.37 548.44 985.30 548.19 984.31
  C 547.84 982.89 547.82 981.41 548.12 979.86
  C 548.39 978.44 548.53 977.02 548.53 975.59
  C 548.54 973.99 548.52 972.39 548.48 970.78
  C 548.47 970.46 548.35 970.16 548.14 969.93
  C 547.03 968.74 545.58 968.53 543.79 969.30
  C 543.41 969.46 543.00 969.53 542.59 969.49
  C 541.28 969.37 540.00 969.47 538.73 969.79
  C 536.38 970.37 534.18 969.87 531.83 970.37
  C 528.66 971.05 525.03 970.73 521.76 970.77
  C 521.44 970.78 521.14 970.86 520.85 971.02
  C 520.56 971.17 520.26 971.25 519.93 971.25
  L 498.49 971.26
  C 498.17 971.26 497.88 971.17 497.61 970.99
  C 497.53 970.94 497.45 970.88 497.38 970.83
  C 497.30 970.78 497.19 970.75 497.09 970.75
  C 494.12 970.72 490.91 971.02 487.98 970.36
  C 486.05 969.93 484.22 970.39 482.32 969.78
  C 481.35 969.47 480.33 969.37 479.26 969.50
  C 478.93 969.54 478.60 969.51 478.28 969.41
  C 477.82 969.26 477.15 969.11 476.26 968.96
  C 460.07 966.29 445.31 960.20 432.00 950.70
  C 428.95 948.53 426.08 946.14 423.37 943.53
  C 421.59 941.81 419.47 940.60 418.01 938.52
  C 416.55 936.45 414.70 934.90 413.07 932.93
  C 401.48 918.87 393.31 902.38 388.54 883.46
  C 388.37 882.79 388.30 882.12 388.34 881.47
  C 388.35 881.13 388.30 880.80 388.17 880.49
  C 387.38 878.58 388.05 876.84 387.50 874.88
  C 386.93 872.83 386.92 870.70 387.46 868.50
  C 387.67 867.66 387.76 866.80 387.75 865.92
  C 387.74 864.97 387.83 864.02 388.00 863.05
  C 389.15 856.71 391.22 851.20 394.23 846.53
  C 395.02 845.31 395.87 844.22 396.78 843.25
  C 397.65 842.32 398.40 841.36 399.03 840.39
  C 399.26 840.03 399.59 839.80 400.01 839.70
  C 401.00 839.48 401.40 838.50 402.19 837.92
  C 405.28 835.61 408.49 833.82 411.82 832.53
  C 415.46 831.12 419.30 830.63 423.34 831.08
  C 423.66 831.11 423.95 831.22 424.21 831.40
  C 424.55 831.63 424.93 831.71 425.36 831.63
  C 425.74 831.56 426.11 831.58 426.48 831.69
  C 427.35 831.96 428.19 832.21 429.00 832.42
  C 429.81 832.63 430.62 832.92 431.44 833.28
  C 438.06 836.23 443.78 839.92 448.61 844.37
  C 451.87 847.37 455.00 850.49 458.01 853.74
  C 463.02 859.15 467.91 865.29 472.66 872.17
  C 473.91 873.99 475.17 875.52 476.43 876.76
  C 478.35 878.65 480.09 880.67 482.31 882.23
  C 486.05 884.85 489.93 886.66 493.95 887.66
  C 495.17 887.96 496.41 888.24 497.66 888.51
  C 498.92 888.77 500.19 888.90 501.46 888.90
  C 528.87 888.87 556.26 888.86 583.62 888.88
  C 583.89 888.88 584.15 888.93 584.41 889.03
  C 584.90 889.22 585.13 889.46 585.71 889.47
  C 591.70 889.58 599.07 888.63 604.59 890.79
  C 608.22 892.21 611.59 894.15 614.69 896.62
  C 614.96 896.83 615.13 897.11 615.19 897.46
  L 622.15 937.27
  C 622.26 937.90 622.25 938.54 622.12 939.16
  C 621.29 943.09 620.57 947.31 619.98 951.80
  C 619.87 952.62 619.83 953.45 619.85 954.28
  C 619.89 955.66 619.23 956.47 619.24 957.87
  C 619.27 962.77 619.27 967.70 619.24 972.65
  C 619.22 974.91 620.12 976.77 619.79 979.06
  C 619.74 979.37 619.82 979.65 620.02 979.90
  C 620.31 980.26 620.45 980.66 620.44 981.11
  C 620.43 981.52 620.48 981.94 620.58 982.35
  C 622.97 992.56 628.14 1000.74 636.07 1006.90
  C 643.00 1012.27 651.32 1015.60 661.05 1016.89
  C 661.68 1016.98 662.30 1017.01 662.92 1017.00
  C 664.03 1016.98 665.20 1017.11 666.44 1017.38
  C 667.75 1017.67 669.09 1017.66 670.45 1017.34
  C 671.50 1017.09 672.37 1016.97 673.08 1016.97
  C 674.30 1016.97 675.44 1017.07 676.63 1016.81
  C 679.07 1016.29 681.41 1015.72 683.66 1015.11
  C 688.19 1013.88 692.71 1011.56 697.23 1008.16
  C 703.42 1003.49 707.64 997.48 709.87 990.13
  C 710.26 988.86 710.54 987.54 710.69 986.19
  C 710.86 984.72 711.12 983.28 711.45 981.88
  C 711.68 980.91 711.76 979.96 711.71 979.01
  C 711.63 977.57 712.41 976.71 712.28 975.35
  C 712.01 972.57 712.91 970.27 712.90 967.55
  C 712.87 960.61 712.86 953.82 712.87 947.18
  C 712.87 946.71 712.75 946.28 712.52 945.89
  C 712.35 945.60 712.26 945.29 712.26 944.96
  L 712.26 937.02
  C 712.26 936.71 712.17 936.42 711.98 936.17
  C 711.87 936.02 711.76 935.79 711.75 935.60
  C 711.72 933.23 711.71 930.78 711.72 928.27
  C 711.73 925.47 711.97 922.67 712.44 919.90
  C 712.90 917.17 713.42 914.21 714.01 911.01
  C 714.47 908.53 715.10 906.28 715.90 904.25
  C 716.82 901.90 717.61 899.61 718.28 897.38
  C 718.37 897.06 718.57 896.83 718.87 896.69
  C 719.11 896.58 719.34 896.44 719.56 896.29
  Z"
/>
<path fill="currentColor" d="
  M 521.28 1139.88
  C 521.40 1140.13 521.65 1140.28 521.92 1140.28
  L 813.02 1140.28
  C 814.89 1140.28 816.40 1138.75 816.38 1136.88
  C 816.34 1132.89 816.34 1128.82 816.37 1124.69
  C 816.38 1123.42 816.52 1122.10 816.79 1120.73
  C 817.21 1118.65 816.72 1116.65 817.27 1114.53
  C 817.72 1112.77 817.47 1111.01 817.83 1109.12
  C 818.01 1108.17 818.15 1107.23 818.26 1106.30
  C 818.91 1100.85 819.97 1095.31 821.46 1089.66
  C 823.51 1081.91 826.08 1075.29 829.19 1069.82
  C 831.62 1065.53 834.78 1061.94 838.68 1059.05
  C 841.97 1056.61 845.99 1055.07 850.75 1054.44
  C 853.50 1054.07 856.38 1054.44 859.39 1055.55
  C 862.18 1056.57 864.65 1058.09 866.79 1060.11
  C 870.54 1063.64 873.32 1067.76 875.15 1072.47
  C 878.82 1081.90 881.23 1092.18 882.39 1103.33
  C 882.48 1104.10 882.60 1104.87 882.75 1105.63
  C 882.91 1106.41 882.99 1107.20 882.99 1108.01
  C 882.99 1109.87 883.00 1111.63 883.03 1113.29
  C 883.04 1113.56 883.12 1113.82 883.27 1114.05
  C 883.32 1114.13 883.37 1114.21 883.42 1114.29
  C 883.51 1114.42 883.55 1114.57 883.55 1114.73
  C 883.53 1119.25 883.54 1123.75 883.57 1128.24
  C 883.57 1128.65 883.68 1129.04 883.91 1129.43
  C 884.09 1129.73 884.18 1130.08 884.18 1130.43
  L 884.19 1136.78
  C 884.19 1137.46 884.75 1138.02 885.43 1138.01
  C 887.15 1137.99 888.92 1137.99 890.75 1138.00
  C 891.57 1138.01 892.02 1138.59 892.79 1138.58
  C 895.40 1138.55 898.09 1138.55 900.86 1138.57
  C 901.19 1138.57 901.49 1138.67 901.76 1138.87
  C 901.87 1138.95 901.99 1139.00 902.12 1139.02
  C 906.90 1139.64 911.06 1141.24 914.61 1143.83
  C 917.97 1146.29 920.64 1149.46 922.62 1153.35
  C 926.09 1160.16 927.48 1167.13 926.79 1174.25
  C 926.38 1178.43 925.12 1182.74 923.01 1187.19
  C 920.10 1193.32 915.85 1198.15 910.28 1201.67
  C 907.80 1203.25 905.25 1203.88 902.58 1204.84
  C 901.87 1205.09 901.12 1205.21 900.33 1205.19
  C 899.14 1205.16 898.41 1205.78 897.15 1205.78
  C 751.90 1205.74 604.60 1205.75 455.23 1205.82
  C 448.81 1205.83 444.11 1205.45 441.14 1204.69
  C 434.74 1203.06 428.46 1199.61 423.71 1194.79
  C 422.52 1193.58 421.43 1192.41 420.44 1191.30
  C 416.61 1186.98 414.04 1182.02 412.73 1176.43
  C 412.65 1176.10 412.53 1175.79 412.37 1175.49
  C 412.20 1175.18 412.17 1174.85 412.27 1174.50
  C 412.36 1174.17 412.34 1173.85 412.21 1173.53
  C 411.69 1172.28 411.54 1170.84 411.75 1169.21
  C 411.80 1168.87 411.74 1168.54 411.58 1168.23
  C 411.05 1167.18 410.94 1166.13 411.26 1165.07
  C 411.92 1162.92 411.57 1160.99 412.14 1158.83
  C 412.88 1156.04 414.01 1153.46 415.52 1151.11
  C 417.06 1148.72 419.07 1146.70 421.54 1145.05
  C 428.33 1140.52 436.28 1138.58 445.38 1139.25
  C 447.10 1139.37 448.05 1137.83 448.03 1136.27
  C 447.97 1132.43 447.96 1128.58 448.01 1124.72
  C 448.02 1123.73 448.69 1122.72 448.61 1122.00
  C 448.34 1119.48 448.43 1116.99 448.86 1114.52
  C 449.23 1112.37 448.87 1110.32 449.43 1108.34
  C 449.90 1106.68 449.53 1105.24 449.88 1103.64
  C 450.01 1103.03 450.10 1102.42 450.17 1101.80
  C 451.04 1093.17 453.07 1084.82 456.27 1076.75
  C 458.75 1070.52 461.92 1065.45 465.77 1061.56
  C 468.63 1058.67 472.30 1056.41 476.79 1054.79
  C 477.49 1054.54 478.15 1054.41 478.76 1054.41
  C 479.31 1054.40 479.80 1054.26 480.24 1053.99
  C 480.56 1053.80 480.90 1053.71 481.27 1053.72
  C 484.98 1053.89 487.99 1054.55 490.29 1055.72
  C 494.04 1057.63 496.89 1059.88 498.85 1062.49
  C 499.37 1063.18 499.92 1063.84 500.51 1064.47
  C 501.93 1065.96 502.90 1067.89 503.95 1069.63
  C 504.60 1070.69 505.18 1071.79 505.70 1072.94
  C 512.89 1088.75 517.66 1106.69 520.03 1126.76
  C 520.25 1128.64 520.38 1130.38 520.42 1131.98
  C 520.45 1132.93 520.57 1133.88 520.79 1134.83
  C 521.14 1136.33 520.65 1138.59 521.28 1139.88
  Z"
/>
</svg>
